<svg width="415" height="146" viewBox="0 0 415 146" fill="none" xmlns="http://www.w3.org/2000/svg">
<path d="M0 0L257.171 0C268.101 0 278.555 4.47282 286.103 12.3786L301.413 28.4155C308.961 36.3213 319.415 40.7941 330.345 40.7941H374.816C395.697 40.7941 413.065 24.7322 414.694 3.91473L415 0V101C415 125.853 394.853 146 370 146H0V0Z" fill="white"/>
<path d="M327 32.5C321 41 312.167 36.5 308 34L309 43L333 57L383 59C392 49 407.772 25.7081 400 32.0001C389.5 40.5001 386 32.5 383.5 28.4999C366.833 27.9999 337.042 18.2733 327 32.5Z" fill="white"/>
</svg>
