<svg width="34" height="34" viewBox="0 0 34 34" fill="none" xmlns="http://www.w3.org/2000/svg">
<path fill-rule="evenodd" clip-rule="evenodd" d="M23.4895 12.3084C24.0759 12.8935 24.0769 13.8433 23.4917 14.4297L16.2467 21.6897C15.9651 21.9719 15.5828 22.1304 15.1842 22.1302C14.7855 22.13 14.4034 21.9711 14.1221 21.6886L10.5071 18.0586C9.92252 17.4716 9.92449 16.5219 10.5115 15.9373C11.0985 15.3527 12.0482 15.3547 12.6328 15.9417L15.186 18.5055L21.3682 12.3106C21.9533 11.7242 22.9031 11.7232 23.4895 12.3084Z" fill="white"/>
<path fill-rule="evenodd" clip-rule="evenodd" d="M17.9335 3.81797C17.4372 3.40431 16.568 3.41466 16.0998 3.81503L13.7328 5.83748C13.3308 6.18449 12.8314 6.43819 12.383 6.6048C11.9332 6.77198 11.3905 6.90499 10.8649 6.90499H8.26995C7.50838 6.90499 6.87495 7.53841 6.87495 8.29999V10.88C6.87495 11.4066 6.74144 11.9454 6.57729 12.3888C6.41239 12.8343 6.16545 13.3215 5.83728 13.7153L5.82844 13.7259L3.80633 16.1074C3.40783 16.5841 3.40783 17.4459 3.80633 17.9226C3.80695 17.9234 3.80757 17.9241 3.80818 17.9248L5.83733 20.3147C6.1655 20.7085 6.41239 21.1957 6.57729 21.6412C6.74144 22.0846 6.87495 22.6234 6.87495 23.15V25.715C6.87495 26.4766 7.50838 27.11 8.26995 27.11H10.8649C11.396 27.11 11.9386 27.242 12.3912 27.4112C12.8429 27.5799 13.3366 27.8348 13.7352 28.1796C13.7359 28.1802 13.7366 28.1809 13.7373 28.1815L16.0964 30.2121C16.5922 30.6252 17.4599 30.6154 17.9285 30.2164C17.9291 30.2159 17.9296 30.2154 17.9301 30.215L20.2925 28.1815C20.2933 28.1808 20.2941 28.1801 20.2949 28.1794C20.6973 27.8315 21.1976 27.5771 21.6468 27.4102C22.0967 27.243 22.6394 27.11 23.1649 27.11H25.7149C26.4765 27.11 27.1099 26.4766 27.1099 25.715V23.165C27.1099 22.634 27.242 22.0914 27.4111 21.6388C27.5798 21.1872 27.8346 20.6936 28.1793 20.295C28.18 20.2942 28.1807 20.2934 28.1814 20.2926L30.2119 17.9336C30.6252 17.4377 30.6153 16.5697 30.216 16.1011C30.2156 16.1007 30.2152 16.1003 30.2149 16.0998L28.1814 13.7374C28.1808 13.7367 28.1802 13.7361 28.1797 13.7354C27.8315 13.333 27.5771 12.8324 27.4101 12.3831C27.2429 11.9332 27.1099 11.3906 27.1099 10.865V8.31499C27.1099 7.55341 26.4765 6.91999 25.7149 6.91999H23.1649C22.6339 6.91999 22.0913 6.78797 21.6387 6.61886C21.1871 6.45014 20.6936 6.19535 20.295 5.85067C20.2942 5.84996 20.2934 5.84924 20.2925 5.84852L17.9335 3.81797ZM14.1505 1.53457C15.7508 0.166579 18.2673 0.175832 19.8717 1.52804L19.8835 1.53813L22.2573 3.58145C22.3084 3.62568 22.4587 3.72269 22.6887 3.80861C22.9186 3.8945 23.096 3.91999 23.1649 3.91999H25.7149C28.1334 3.91999 30.1099 5.89657 30.1099 8.31499V10.865C30.1099 10.9244 30.1344 11.1018 30.2223 11.3382C30.31 11.5743 30.4075 11.7253 30.4485 11.7726L30.4518 11.7764L32.495 14.1502C33.8633 15.7505 33.8542 18.2673 32.5019 19.8717L32.4918 19.8836L30.4518 22.2536L30.4485 22.2574C30.4042 22.3085 30.3072 22.4588 30.2213 22.6888C30.1354 22.9186 30.1099 23.0961 30.1099 23.165V25.715C30.1099 28.1335 28.1334 30.11 25.7149 30.11H23.1649C23.1055 30.11 22.9281 30.1345 22.6918 30.2224C22.4556 30.3101 22.3046 30.4076 22.2573 30.4486L22.2535 30.4519L19.8835 32.4919L19.8798 32.4951C18.2795 33.8634 15.7627 33.8543 14.1582 32.502L14.1464 32.4919L11.7764 30.4519L11.7725 30.4486C11.7215 30.4043 11.5712 30.3073 11.3412 30.2214C11.1113 30.1355 10.9339 30.11 10.8649 30.11H8.26995C5.85152 30.11 3.87495 28.1335 3.87495 25.715V23.15C3.87495 23.0916 3.85097 22.9179 3.76386 22.6826C3.6791 22.4536 3.58304 22.2973 3.53524 22.2385L1.51171 19.8552C0.172683 18.2622 0.172697 15.7678 1.51172 14.1748L1.5165 14.1692L3.53523 11.7915C3.58302 11.7327 3.67909 11.5764 3.76386 11.3474C3.85097 11.1121 3.87495 10.9384 3.87495 10.88V8.29999C3.87495 5.88157 5.85152 3.90499 8.26995 3.90499H10.8649C10.9244 3.90499 11.1017 3.8805 11.3381 3.79267C11.5743 3.70492 11.7253 3.60741 11.7725 3.56645L11.7805 3.55955L14.1505 1.53457C14.1507 1.53445 14.1504 1.53469 14.1505 1.53457Z" fill="white"/>
</svg>
